<svg xmlns="http://www.w3.org/2000/svg" viewBox="0 0 98 132">
  <path fill="#101023" d="M161.48,296.12c-3.34,11.31-11,19.73-18.68,28.17-2.43,2.86-4.32,5.18-5.5,6.65,0,0-3.53,3.63-11,11.95-2.57,2.84-5.23,3.29-7.81.25C109,332,98.28,321.77,89.74,309.83c-7.64-10.71-9.5-23-6.84-35.78,1.07-5.18-2-9.72-1.24-14.85.57-3.93,0-7.91,5.69-7.87a2,2,0,0,0,2.11-2C90.84,235.88,101,233.16,111.58,232a93.54,93.54,0,0,1,25.49.59c9.75,1.65,16.57,6,18,16.55a2.07,2.07,0,0,0,.61.87c2.31,1.41,6.45.15,7.08,3.78.72,4.17,1.83,8.63,0,12.73a11.19,11.19,0,0,0-.6,7.36A44.29,44.29,0,0,1,161.48,296.12Z" transform="translate(-75.32 -230.71)"/>
  <path fill="#9d1918" d="M163.26,295.39c-3.33,11.3-11,19.73-18.68,28.16-2.43,2.86-4.32,5.19-5.5,6.65,0,0-3.53,3.64-11,11.95-2.58,2.85-5.23,3.3-7.82.26-9.48-11.18-20.17-21.37-28.7-33.31-7.65-10.71-9.51-23-6.85-35.79,1.08-5.17-2-9.71-1.24-14.84.58-3.93,0-7.91,5.7-7.88a2,2,0,0,0,2.11-2c1.37-13.42,11.51-16.13,22.12-17.25a93.46,93.46,0,0,1,25.48.59c9.75,1.64,16.57,6,18,16.55.18.31.32.7.61.87,2.32,1.41,6.45.14,7.08,3.77.72,4.18,1.83,8.64,0,12.74a11.18,11.18,0,0,0-.59,7.36A44.29,44.29,0,0,1,163.26,295.39Z" transform="translate(-75.32 -230.71)"/>
  <path fill="#bdbdc0" d="M121.58,359.92a34.58,34.58,0,0,1-15.81-2.36c-1.28-.54-2.88-1.1-2.57-3,.23-1.49,1.53-1.91,2.76-2.27a58.81,58.81,0,0,1,33.13-.08c1.47.42,2.93.95,3,2.66.1,2.08-1.61,2.57-3.22,3.05A51.41,51.41,0,0,1,121.58,359.92Z" transform="translate(-75.32 -230.71)"/>
  <path fill="#fffffd" d="M123.75,268.06c-7.25,0-14.51-.1-21.76.05-3.23.07-4.41-1-4.45-4.37-.17-15.13-.26-15.14,14.53-15.16,10.69,0,21.39.19,32.08,0,3.77-.08,5.1,1.5,5.67,4.88,2.48,14.5,2.4,14.65-11.93,14.66H123.75Z" transform="translate(-75.32 -230.71)"/>
  <path fill="#fffffd" d="M105.47,280.68c-2.21-2.7-.63-4,2.43-3.62a135,135,0,0,0,32.52,0c2.9-.34,3.35,1.25,3.1,3.23a7.24,7.24,0,0,1-4.64,2.16C127.64,283.41,116.32,285.12,105.47,280.68Z" transform="translate(-75.32 -230.71)"/>
  <circle fill="#fffffd" cx="18.32" cy="51.83" r="7.55"/>
  <circle fill="#fffffd" cx="79.72" cy="51.83" r="7.55"/>
  <path fill="#fffffd" d="M105.47,288.73c-2.21-2.71-.63-4,2.43-3.63a134.53,134.53,0,0,0,32.52,0c2.9-.34,3.35,1.25,3.1,3.23a7.18,7.18,0,0,1-4.64,2.15C127.64,291.46,116.32,293.16,105.47,288.73Z" transform="translate(-75.32 -230.71)"/>
</svg>
